<svg width="201" height="63" xmlns="http://www.w3.org/2000/svg" xmlns:xlink="http://www.w3.org/1999/xlink" xml:space="preserve" overflow="hidden"><defs><clipPath id="clip0"><rect x="36" y="18" width="201" height="63"/></clipPath></defs><g clip-path="url(#clip0)" transform="translate(-36 -18)"><path d="M212.115 865.663C214.599 865.663 216.613 867.677 216.613 870.162L216.613 924.126C216.613 926.611 214.599 928.625 212.115 928.625L158.15 928.625C155.666 928.625 153.652 926.611 153.652 924.126L153.652 870.162C153.652 867.677 155.666 865.663 158.15 865.663Z" fill="#1A1A1A" transform="matrix(1.0032 0 0 1 -118.144 -847.664)"/><path d="M45.5323 125.113 48.4756 125.113C54.3621 125.113 58.5683 126.283 61.0942 128.62 63.4948 130.854 64.695 134.382 64.695 139.204L64.695 145.404 61.5326 145.404C55.5415 145.404 51.3771 144.506 49.0392 142.711 46.7012 140.894 45.5323 137.638 45.5323 132.941Z" fill="#87DE87" transform="matrix(1.0032 0 0 1 23.3481 -74.6122)"/><path d="M45.5323 114.374C45.5323 109.76 46.7012 106.66 49.0392 105.074 51.2518 103.592 55.4163 102.851 61.5326 102.851L64.695 102.851 64.695 108.769C64.695 113.486 63.4948 116.847 61.0942 118.851 58.6519 120.855 54.4456 121.857 48.4756 121.857L45.5323 121.857Z" fill="#87DE87" transform="matrix(1.0032 0 0 1 23.3481 -74.6122)"/><path d="M164.529 875.84 181.375 875.84 181.375 918.391 164.529 918.391Z" fill="#F2F2F2" transform="matrix(1.0032 0 0 1 -118.144 -847.664)"/><text fill="#1A1A1A" font-family="Poppins SemiBold,Poppins SemiBold_MSFontService,sans-serif" font-weight="600" font-size="68" transform="matrix(0.574214 0 0 0.572381 112.813 63)">Kasjer</text></g></svg>